HIERARCHY
ROOT Hips
{
 OFFSET 0.000000 0.000000 0.000000
 CHANNELS 6 Xposition Yposition Zposition Yrotation Xrotation Zrotation
 JOINT Chest
 {
  OFFSET 0.000000 9.581000 -0.001100
  CHANNELS 3 Yrotation Xrotation Zrotation
  JOINT Chest2
  {
   OFFSET 0.000000 9.561100 0.002200
   CHANNELS 3 Yrotation Xrotation Zrotation
   JOINT Chest3
   {
    OFFSET 0.000000 9.521100 0.000000
    CHANNELS 3 Yrotation Xrotation Zrotation
    JOINT Chest4
    {
     OFFSET 0.000000 9.511400 0.000000
     CHANNELS 3 Yrotation Xrotation Zrotation
     JOINT Neck
     {
      OFFSET 0.000000 14.375100 0.000000
      CHANNELS 3 Yrotation Xrotation Zrotation
      JOINT Head
      {
       OFFSET 0.000000 8.901200 0.004600
       CHANNELS 3 Yrotation Xrotation Zrotation
       End Site
       {
        OFFSET 0.000000 16.962200 0.002400
       }
      }
     }
     JOINT RightCollar
     {
      OFFSET -2.920100 9.518800 0.000000
      CHANNELS 3 Yrotation Xrotation Zrotation
      JOINT RightShoulder
      {
       OFFSET -13.664500 0.000000 0.000000
       CHANNELS 3 Yrotation Xrotation Zrotation
       JOINT RightElbow
       {
        OFFSET 0.000000 -29.999200 0.000000
        CHANNELS 3 Yrotation Xrotation Zrotation
        JOINT RightWrist
        {
         OFFSET 0.000000 -24.253600 0.000000
         CHANNELS 3 Yrotation Xrotation Zrotation
         End Site
         {
          OFFSET 0.000000 -17.918900 0.000000
         }
        }
       }
      }
     }
     JOINT LeftCollar
     {
      OFFSET 2.920100 9.518800 0.000000
      CHANNELS 3 Yrotation Xrotation Zrotation
      JOINT LeftShoulder
      {
       OFFSET 13.664500 0.000000 0.000000
       CHANNELS 3 Yrotation Xrotation Zrotation
       JOINT LeftElbow
       {
        OFFSET 0.000000 -29.999200 0.000000
        CHANNELS 3 Yrotation Xrotation Zrotation
        JOINT LeftWrist
        {
         OFFSET 0.000000 -24.253600 0.000000
         CHANNELS 3 Yrotation Xrotation Zrotation
         End Site
         {
          OFFSET 0.000000 -17.918900 0.000000
         }
        }
       }
      }
     }
    }
   }
  }
 }
 JOINT RightHip
 {
  OFFSET -7.797300 0.005300 0.000500
  CHANNELS 3 Yrotation Xrotation Zrotation
  JOINT RightKnee
  {
   OFFSET 0.000000 -40.663400 -0.000500
   CHANNELS 3 Yrotation Xrotation Zrotation
   JOINT RightAnkle
   {
    OFFSET 0.000000 -39.523700 -0.000900
    CHANNELS 3 Yrotation Xrotation Zrotation
    JOINT RightToe
    {
     OFFSET 0.000000 -6.418000 14.485300
     CHANNELS 3 Yrotation Xrotation Zrotation
     End Site
     {
      OFFSET 0.000000 -1.465200 6.326400
     }
    }
   }
  }
 }
 JOINT LeftHip
 {
  OFFSET 7.797300 0.005300 0.000500
  CHANNELS 3 Yrotation Xrotation Zrotation
  JOINT LeftKnee
  {
   OFFSET 0.000000 -40.663400 -0.000500
   CHANNELS 3 Yrotation Xrotation Zrotation
   JOINT LeftAnkle
   {
    OFFSET 0.000000 -39.523700 -0.000900
    CHANNELS 3 Yrotation Xrotation Zrotation
    JOINT LeftToe
    {
     OFFSET 0.000000 -6.418000 14.485300
     CHANNELS 3 Yrotation Xrotation Zrotation
     End Site
     {
      OFFSET 0.000000 -1.465200 6.326400
     }
    }
   }
  }
 }
}
MOTION
Frames: 6
Frame Time: 0.008333
-18.403205 126.879982 19.954418 -173.748863 -46.845220 -6.228709 0.236234 26.827376 0.057346 0.045416 4.571085 -0.075251 0.064043 7.261239 0.079734 0.203058 21.944532 0.081155 2.049307 13.390242 2.399865 1.601793 -11.629899 2.048958 2.614679 1.265252 3.058589 -15.247843 -19.044412 -16.603177 -93.393155 -44.927457 140.026968 14.236594 23.377787 37.266561 -8.260111 -1.588821 0.975443 -4.991425 -10.603235 11.365987 63.167818 -50.268054 -108.657234 2.115158 -7.030640 -8.801306 -21.544498 -15.918544 1.173521 -5.767406 67.168824 9.228761 15.151372 -9.945070 -3.669679 -0.002707 -0.005484 -0.001199 14.369724 -8.039901 1.765609 -176.459928 84.534387 179.376787 -11.810914 -14.378460 4.534075 -0.000580 0.001546 -0.000257
-18.402218 126.880530 19.954254 -173.788181 -46.852324 -6.181032 0.238511 26.836788 0.139656 0.036442 4.576515 -0.009098 0.057764 7.262185 0.052291 0.187016 21.946122 0.107400 2.121285 13.255610 2.124241 1.738069 -11.770586 1.742212 2.628613 1.248929 3.110237 -14.563209 -18.849716 -16.789177 -92.025277 -44.565916 139.319197 14.185155 23.419881 37.482926 -8.292254 -1.611587 0.969311 -5.104101 -10.630292 11.348067 63.056485 -50.208847 -108.671973 2.070328 -6.902295 -9.127539 -21.504516 -15.919236 1.163572 -5.743760 67.171752 9.252733 15.103792 -9.981698 -3.677496 -0.004292 -0.005450 -0.001902 14.396466 -8.028072 1.754664 -176.412875 84.537720 179.417473 -11.818060 -14.379017 4.544483 0.000014 0.000983 0.000006
-18.399389 126.880785 19.954321 -173.802686 -46.853630 -6.161819 0.235522 26.842360 0.214395 0.032435 4.580091 0.028203 0.052588 7.263900 0.045909 0.183919 21.949730 0.165954 2.194761 13.120214 1.844655 1.877044 -11.911183 1.431905 2.641343 1.233453 3.165330 -13.891942 -18.662472 -16.955231 -90.746912 -44.227390 138.651422 14.132297 23.462491 37.658353 -8.327404 -1.640224 0.967567 -5.219388 -10.648581 11.331617 62.948588 -50.150600 -108.692560 2.023276 -6.768400 -9.457221 -21.486719 -15.920569 1.162184 -5.752816 67.173348 9.245153 15.095326 -10.000036 -3.681613 -0.004718 -0.007233 -0.002090 14.407506 -8.026383 1.749791 -176.404598 84.535564 179.422724 -11.816258 -14.381557 4.546391 -0.000688 0.001104 -0.000305
-18.397166 126.880854 19.954442 -173.825225 -46.853815 -6.132452 0.234681 26.847231 0.284614 0.029933 4.582174 0.039747 0.048977 7.266945 0.064194 0.180193 21.953189 0.221737 2.272221 12.984568 1.562776 2.021230 -12.051171 1.119014 2.658359 1.213618 3.222839 -13.234872 -18.476131 -17.102073 -89.549426 -43.910948 138.021727 14.077441 23.504767 37.792749 -8.358403 -1.674098 0.969094 -5.344839 -10.660893 11.316492 62.844945 -50.091640 -108.713590 1.978332 -6.624042 -9.790084 -21.465919 -15.928440 1.154054 -5.756894 67.178906 9.238366 15.117494 -10.005681 -3.683380 -0.001688 -0.006688 -0.000748 14.423029 -8.025107 1.742845 -176.407067 84.535464 179.415329 -11.827328 -14.380120 4.553008 -0.001773 0.000974 -0.000786
-18.395611 126.880930 19.954463 -173.855008 -46.854403 -6.093224 0.235566 26.852772 0.349879 0.027452 4.584224 0.051119 0.045403 7.269959 0.082211 0.176523 21.956565 0.276602 2.350837 12.849014 1.279952 2.167566 -12.190283 0.805387 2.682583 1.183885 3.282358 -12.594334 -18.287927 -17.230646 -88.421099 -43.620322 137.420585 14.019656 23.551204 37.898325 -8.390400 -1.710990 0.968486 -5.477993 -10.673577 11.303993 62.742350 -50.028561 -108.727148 1.931631 -6.466654 -10.124163 -21.440205 -15.939066 1.140223 -5.756949 67.189183 9.236395 15.139641 -10.015867 -3.686572 0.001475 -0.005736 0.000654 14.447364 -8.020011 1.736342 -176.363876 84.536847 179.450926 -11.833963 -14.379431 4.560266 -0.001037 0.001009 -0.000459
-18.393392 126.880962 19.954504 -173.877722 -46.853203 -6.062540 0.235494 26.857793 0.419493 0.025197 4.586425 0.062852 0.042247 7.273226 0.100855 0.174278 21.960121 0.333428 2.427538 12.714072 0.997434 2.312654 -12.328140 0.492744 2.711586 1.139337 3.345303 -11.974790 -18.099346 -17.344742 -87.344585 -43.351281 136.832256 13.960141 23.613747 37.996733 -8.430249 -1.750173 0.963675 -5.612487 -10.690053 11.294264 62.638652 -49.959992 -108.729387 1.877487 -6.286156 -10.464301 -21.421041 -15.947057 1.129490 -5.773466 67.194326 9.221849 15.157590 -10.027597 -3.691575 0.000949 -0.006564 0.000421 14.465595 -8.017175 1.726669 -176.387584 84.538455 179.421350 -11.830280 -14.383900 4.559236 -0.001347 0.000424 -0.000597
